<svg width="44" height="44" viewBox="0 0 44 44" fill="none" xmlns="http://www.w3.org/2000/svg">
  <path fill-rule="evenodd" clip-rule="evenodd"
    d="M4.80842 1.3735C3.77705 0.342134 2.10488 0.342134 1.07351 1.3735C0.0421483 2.40487 0.0421483 4.07704 1.07351 5.10841L18.0702 22.1051L1.07351 39.1018C0.0421465 40.1331 0.0421463 41.8053 1.07351 42.8367C2.10488 43.868 3.77705 43.868 4.80842 42.8367L21.8051 25.84L38.8018 42.8367C39.8331 43.868 41.5053 43.868 42.5367 42.8367C43.568 41.8053 43.568 40.1331 42.5367 39.1017L25.54 22.1051L42.5367 5.10841C43.568 4.07705 43.568 2.40487 42.5367 1.37351C41.5053 0.342139 39.8331 0.342139 38.8018 1.37351L21.8051 18.3702L4.80842 1.3735Z"
    fill="#707070" />
</svg>